<?xml version="1.0" standalone="no"?>
<!DOCTYPE svg PUBLIC "-//W3C//DTD SVG 20010904//EN"
 "http://www.w3.org/TR/2001/REC-SVG-20010904/DTD/svg10.dtd">
<svg version="1.0" xmlns="http://www.w3.org/2000/svg" viewBox="350 0 600.000000 894.000000"
 preserveAspectRatio="xMidYMid meet">

<g transform="translate(0.000000,894.000000) scale(0.100000,-0.100000)"
fill="#000000" stroke="none">
<path d="M4225 8452 c-35 -13 -99 -46 -118 -62 -49 -40 -157 -153 -171 -180
-9 -17 -23 -44 -32 -61 -39 -74 -56 -229 -33 -300 49 -153 146 -259 268 -294
143 -41 205 -26 372 90 132 92 164 129 209 240 21 50 25 76 24 155 0 81 -4
106 -30 169 -34 87 -110 171 -196 217 -48 25 -64 28 -163 31 -60 1 -119 -1
-130 -5z"/>
<path d="M8930 7961 c-8 -5 -32 -16 -52 -25 -21 -8 -38 -22 -38 -31 0 -8 -4
-15 -9 -15 -4 0 -14 -47 -21 -105 -7 -58 -17 -105 -21 -105 -5 0 -9 -14 -9
-32 0 -37 -17 -148 -30 -198 -5 -19 -18 -87 -30 -150 -11 -63 -25 -131 -30
-150 -6 -19 -12 -55 -15 -80 -2 -25 -18 -110 -35 -190 -17 -80 -36 -167 -41
-195 -5 -27 -16 -79 -24 -115 -8 -36 -21 -101 -30 -145 -15 -75 -37 -175 -72
-325 -8 -36 -23 -105 -34 -155 -24 -113 -53 -237 -79 -340 -11 -44 -29 -118
-39 -165 -11 -47 -33 -137 -51 -200 -17 -63 -38 -144 -46 -179 -8 -35 -17 -68
-21 -74 -4 -7 -15 -46 -24 -87 -32 -140 -50 -204 -60 -216 -6 -7 -27 -18 -47
-24 -20 -7 -51 -18 -69 -26 -17 -8 -35 -14 -40 -14 -9 0 -119 -50 -155 -70
-10 -6 -23 -10 -29 -10 -5 0 -35 -11 -65 -25 -30 -14 -59 -25 -64 -25 -6 0
-29 -9 -53 -19 -23 -11 -80 -34 -127 -51 -47 -18 -96 -38 -110 -46 -14 -7 -54
-25 -90 -39 -36 -15 -84 -35 -107 -46 -24 -10 -52 -19 -63 -19 -11 0 -20 -4
-20 -10 0 -5 -8 -10 -18 -10 -10 0 -22 -4 -28 -8 -5 -5 -47 -23 -93 -41 -46
-18 -100 -41 -120 -52 -20 -10 -39 -19 -44 -19 -7 0 -60 -22 -122 -50 -11 -5
-47 -19 -80 -31 -33 -12 -64 -25 -69 -30 -6 -5 -16 -9 -23 -9 -7 0 -37 -11
-67 -25 -30 -14 -58 -25 -62 -25 -3 0 -36 -14 -73 -31 -36 -17 -75 -35 -86
-40 -11 -4 -42 -18 -70 -30 -27 -11 -63 -27 -80 -34 -16 -7 -48 -20 -70 -30
-22 -10 -53 -23 -70 -30 -16 -7 -93 -42 -170 -78 -77 -35 -162 -74 -190 -86
-27 -12 -59 -26 -70 -31 -89 -40 -119 -51 -145 -57 -17 -3 -30 -9 -30 -13 0
-4 -16 -11 -36 -15 -20 -3 -46 -15 -57 -26 -11 -10 -27 -19 -34 -19 -8 0 -33
-9 -56 -19 -24 -11 -56 -23 -72 -27 -17 -4 -32 -10 -35 -13 -7 -9 -113 -51
-127 -51 -6 0 -13 -4 -15 -8 -1 -5 -15 -12 -29 -15 -24 -6 -27 -3 -37 36 -14
55 -49 253 -62 342 -5 39 -16 95 -24 125 -7 30 -17 87 -21 125 -3 39 -11 89
-16 113 -5 24 -16 98 -24 165 -8 67 -19 142 -25 167 -5 25 -16 108 -25 185 -8
77 -21 190 -30 250 -16 113 -34 266 -60 505 -9 74 -20 169 -25 210 -6 41 -17
149 -25 240 -8 91 -20 199 -25 240 -6 41 -17 161 -25 265 -8 105 -17 204 -20
220 -3 17 -10 91 -16 165 -5 74 -14 176 -19 225 -4 50 -9 100 -9 112 -1 30
-36 49 -56 30 -20 -21 -25 -142 -31 -802 -5 -583 6 -1207 26 -1375 5 -47 15
-166 21 -265 5 -99 14 -211 19 -250 5 -38 16 -149 25 -245 9 -96 22 -213 30
-260 9 -47 22 -146 31 -220 31 -255 40 -325 46 -340 4 -8 9 -31 11 -50 15
-110 38 -249 46 -275 5 -16 12 -55 15 -85 4 -30 15 -82 26 -115 10 -33 26 -96
35 -140 46 -219 75 -333 95 -380 10 -22 21 -56 25 -75 8 -40 62 -215 75 -245
5 -11 14 -40 21 -65 6 -25 14 -49 19 -55 4 -5 11 -26 15 -45 4 -19 16 -47 26
-62 11 -14 19 -31 19 -37 0 -12 36 -102 69 -176 34 -74 116 -240 122 -245 3
-3 13 -22 22 -42 10 -21 21 -38 25 -38 4 0 18 -20 31 -45 13 -25 28 -45 32
-45 5 0 9 -5 9 -11 0 -15 119 -160 184 -224 68 -68 161 -145 174 -145 6 0 12
-4 14 -9 5 -14 141 -80 178 -87 19 -4 40 -10 45 -14 6 -5 54 -14 107 -21 138
-18 303 3 385 49 12 7 29 12 37 12 9 0 16 4 16 9 0 5 17 16 38 25 57 25 160
87 198 121 7 6 33 28 59 50 59 50 170 161 210 210 17 20 42 52 57 70 49 58
268 379 298 435 7 14 16 27 19 30 9 7 88 155 189 355 50 98 152 314 152 321 0
3 13 34 29 68 16 33 36 79 45 101 10 22 26 58 36 80 10 22 30 69 45 105 15 36
35 83 45 105 10 22 28 69 40 105 13 36 33 88 46 117 13 28 24 58 24 65 0 8 4
18 9 23 4 6 23 55 42 110 19 55 37 102 42 103 4 2 7 12 7 22 0 10 4 21 9 24 5
3 11 20 14 38 4 29 43 147 67 203 5 11 14 38 21 60 6 22 15 45 19 50 4 6 11
26 15 45 4 19 11 40 15 45 5 6 14 33 21 60 6 28 16 55 21 61 5 7 8 16 7 20 -1
5 0 16 3 24 4 8 18 56 33 105 15 50 31 99 35 110 12 30 26 75 41 125 7 25 15
50 18 55 3 6 13 39 22 75 30 115 49 185 58 205 5 11 21 67 36 125 15 58 34
125 42 150 8 25 19 65 23 90 5 25 18 77 29 115 11 39 32 115 46 170 15 55 30
109 35 120 5 11 14 47 21 80 6 33 22 103 36 155 53 208 80 318 113 470 35 164
57 255 63 270 7 17 30 124 58 270 10 52 32 158 49 235 17 77 40 185 50 240 10
55 28 147 40 205 11 58 27 138 35 179 8 40 19 79 24 85 6 7 16 46 22 87 7 40
15 76 19 79 13 9 27 154 19 185 -21 75 -159 148 -219 116z m-1170 -3745 c-14
-13 -209 -185 -435 -382 -483 -421 -846 -744 -1184 -1053 -375 -340 -903 -817
-934 -841 l-27 -22 -34 74 c-18 40 -39 96 -45 123 -34 153 -76 319 -101 395
-15 47 -33 110 -40 140 -6 30 -18 73 -25 95 -7 22 -19 67 -25 100 -7 33 -16
71 -21 85 -4 14 -10 37 -11 53 -3 26 2 29 207 117 116 50 224 97 242 105 17 8
36 15 43 15 7 0 26 6 43 14 18 8 61 25 97 37 36 13 76 29 90 36 14 7 31 13 38
13 8 0 26 6 40 14 42 23 281 116 297 116 8 0 15 3 15 8 0 4 18 13 39 19 22 7
65 24 95 38 30 14 58 25 61 25 3 0 43 18 88 39 45 21 111 51 147 66 36 14 79
32 95 40 17 7 64 27 105 44 41 18 95 41 120 52 43 19 56 26 98 49 9 5 42 20
72 33 30 13 76 34 102 46 26 11 50 21 54 21 3 0 52 23 109 50 57 28 106 50
108 50 3 0 43 17 89 38 129 60 180 80 223 92 22 6 69 26 105 44 80 40 92 43
60 12z m156 -232 c-8 -22 -24 -73 -36 -114 -23 -80 -106 -332 -120 -365 -5
-11 -20 -53 -34 -93 -30 -84 -171 -433 -192 -474 -9 -16 -10 -28 -4 -28 10 0
-24 -98 -41 -115 -5 -5 -9 -16 -9 -25 0 -10 -6 -30 -14 -46 -36 -75 -116 -263
-116 -273 0 -6 -4 -11 -10 -11 -5 0 -10 -5 -10 -11 0 -6 -23 -59 -51 -118 -28
-58 -56 -117 -62 -131 -7 -14 -14 -27 -17 -30 -3 -3 -18 -32 -35 -65 -16 -33
-36 -66 -42 -73 -7 -7 -16 -24 -19 -38 -3 -13 -9 -24 -13 -24 -4 0 -18 -22
-32 -50 -13 -27 -27 -50 -31 -50 -5 0 -8 -6 -8 -13 0 -7 -7 -22 -15 -32 -26
-34 -75 -110 -75 -116 0 -6 -98 -160 -117 -184 -4 -6 -28 -37 -53 -70 -25 -33
-49 -65 -55 -72 -5 -6 -28 -33 -50 -59 -46 -55 -213 -224 -237 -239 -8 -5 -57
-38 -109 -73 -51 -34 -98 -62 -105 -62 -6 0 -25 -7 -42 -16 -45 -22 -159 -29
-223 -14 -83 20 -185 78 -253 145 -72 70 -146 153 -146 164 0 4 -8 16 -18 27
-16 18 -42 57 -85 129 -42 72 -138 276 -140 298 -2 20 27 50 149 158 180 160
495 445 729 659 509 467 1743 1556 1752 1546 2 -2 -3 -21 -11 -42z"/>
</g>
</svg>
