<svg version="1.0" xmlns="http://www.w3.org/2000/svg"
 width="1024.000000pt" height="1280.000000pt" viewBox="0 0 1024.000000 1280.000000"
 preserveAspectRatio="xMidYMid meet">

<g transform="translate(0.000000,1280.000000) scale(0.100000,-0.100000)"
fill="#000000" stroke="none">
<path d="M5035 10910 c-38 -5 -97 -17 -130 -27 -50 -16 -66 -26 -97 -68 -36
-48 -58 -108 -58 -163 0 -29 -29 -52 -65 -52 -45 0 -123 -112 -145 -209 -11
-46 -9 -155 3 -167 4 -4 539 101 565 111 8 3 12 -8 12 -34 l0 -39 -77 -17
c-277 -60 -578 -149 -615 -183 -33 -30 -72 -116 -99 -219 -17 -62 -22 -110
-23 -233 0 -85 3 -181 7 -212 8 -55 10 -58 38 -58 16 0 193 34 394 75 200 41
367 75 370 75 3 0 5 -18 5 -40 0 -37 -2 -40 -27 -40 -57 0 -55 21 -49 -476 4
-253 9 -492 12 -531 6 -73 6 -73 35 -73 28 0 29 -2 29 -43 l0 -43 -67 -21
c-38 -12 -137 -43 -221 -69 l-152 -47 -30 -47 c-39 -61 -59 -120 -69 -205 -9
-67 -2 -168 12 -181 8 -8 102 8 321 57 99 21 185 39 193 39 9 0 13 -13 13 -40
0 -22 -2 -40 -5 -40 -11 0 -397 -116 -574 -173 -186 -59 -196 -63 -222 -100
-31 -43 -66 -139 -75 -210 -7 -47 -7 -48 -78 -83 -126 -64 -195 -119 -225
-183 -24 -52 -26 -65 -26 -196 0 -119 4 -148 22 -192 15 -38 18 -55 9 -61 -16
-13 -227 -136 -404 -236 -152 -86 -577 -309 -682 -358 -209 -98 -346 -153
-530 -215 l-85 -28 1 -35 c1 -28 666 -2370 785 -2765 59 -195 102 -320 113
-331 6 -6 67 -35 136 -64 143 -60 808 -347 1200 -517 456 -198 619 -263 660
-263 40 0 286 99 780 315 135 59 306 133 380 165 74 32 293 126 485 208 l350
151 32 83 c35 93 73 221 272 918 484 1690 602 2112 598 2124 -3 8 -63 33 -134
56 -181 60 -351 133 -633 274 -317 158 -928 498 -945 525 -2 5 5 32 17 62 18
45 22 76 22 179 1 212 -34 269 -229 371 l-105 54 0 45 c-1 56 -39 167 -73 212
-24 31 -43 40 -204 91 -98 31 -263 82 -368 112 -104 31 -198 58 -207 61 -22 6
-26 84 -5 84 7 0 102 -20 212 -44 255 -56 295 -62 306 -44 13 19 11 168 -2
230 -14 65 -59 156 -90 184 -20 17 -227 86 -406 136 -31 8 -33 12 -33 53 0 43
1 45 29 45 l29 0 6 233 c14 550 16 808 6 827 -7 13 -21 20 -40 20 -28 0 -30 2
-30 41 0 40 1 41 28 36 313 -67 723 -147 742 -145 34 4 42 54 42 248 0 133 -3
169 -25 251 -24 92 -62 184 -91 222 -16 21 -233 88 -471 146 -93 23 -183 45
-200 49 -25 6 -31 14 -33 40 -3 25 0 32 15 32 10 0 139 -25 288 -54 148 -30
273 -52 277 -50 14 9 9 148 -7 201 -8 28 -30 73 -48 99 -31 47 -50 61 -113 84
-28 10 -32 17 -37 61 -8 63 -36 126 -75 165 -59 59 -253 93 -417 74z m95 -97
c0 -43 -3 -162 -7 -264 l-6 -187 -56 -12 c-31 -6 -154 -34 -274 -62 -119 -28
-221 -48 -225 -44 -4 5 -7 42 -6 85 2 135 72 250 162 266 39 6 39 6 45 60 7
67 49 148 97 187 38 30 103 44 213 47 l57 1 0 -77z m-10 -932 l0 -360 -57 -11
c-32 -7 -200 -45 -375 -86 -174 -41 -323 -74 -331 -74 -11 0 -18 21 -26 75
-30 202 2 448 77 587 21 41 33 51 80 68 81 31 555 151 625 159 4 1 7 -161 7
-358z m-2 -1868 l-3 -198 -205 -51 c-113 -28 -222 -56 -244 -63 -49 -17 -56
-8 -56 77 0 84 24 183 63 261 l32 64 150 38 c83 21 170 45 195 53 25 8 51 14
58 15 10 1 12 -42 10 -196z m2 -511 l0 -157 -157 -126 c-352 -281 -536 -416
-803 -591 -183 -120 -177 -119 -203 -33 -19 63 -15 269 6 337 l17 57 103 54
c56 30 123 62 150 72 26 10 47 23 48 29 0 6 0 29 -1 52 -2 49 23 149 52 209
l21 43 141 36 c78 20 247 67 376 105 129 38 238 69 243 70 4 0 7 -70 7 -157z
m0 -379 l0 -178 -103 -76 c-700 -524 -1754 -1013 -2539 -1180 -76 -16 -141
-29 -145 -29 -5 1 51 20 122 44 189 63 387 150 670 296 762 390 1211 677 1805
1154 100 80 183 146 186 146 2 0 4 -80 4 -177z m240 22 c482 -389 819 -615
1400 -937 417 -232 805 -416 1050 -500 147 -50 91 -44 -160 18 -760 186 -1711
642 -2402 1152 l-88 64 0 180 c0 141 3 178 13 172 6 -5 91 -72 187 -149z
m-244 -1701 c-3 -796 -8 -1449 -11 -1452 -3 -3 -5 10 -5 29 0 80 -54 365 -115
609 -99 395 -276 776 -473 1021 -195 241 -431 392 -675 431 l-75 12 227 112
c362 179 720 393 1025 613 55 39 102 71 104 71 2 0 2 -651 -2 -1446z"/>
<path d="M2995 9403 c-329 -22 -306 -95 45 -147 327 -49 1142 -95 1160 -66 7
11 -11 126 -25 161 -7 19 -128 33 -425 49 -161 9 -638 11 -755 3z"/>
<path d="M6480 9399 c-91 -5 -212 -15 -270 -22 l-105 -12 -12 -50 c-7 -27 -14
-68 -15 -90 l-3 -40 205 3 c593 8 1240 88 1240 152 0 17 -44 38 -105 50 -78
16 -713 21 -935 9z"/>
<path d="M4859 9333 c-23 -4 -26 -10 -36 -76 -28 -189 -108 -701 -133 -857
-16 -96 -27 -177 -25 -181 5 -7 182 15 191 24 8 7 34 217 58 457 33 334 46
467 52 553 l7 87 -44 -1 c-24 -1 -56 -4 -70 -6z"/>
<path d="M5310 9294 c0 -90 99 -1037 110 -1048 10 -10 181 -37 190 -29 4 4 -3
55 -66 463 -57 376 -101 640 -106 645 -2 3 -32 8 -66 11 l-62 7 0 -49z"/>
<path d="M4557 9289 c-139 -39 -197 -62 -197 -78 0 -19 40 -42 91 -51 30 -6
104 -11 164 -13 l110 -2 3 40 c5 59 -8 145 -21 144 -7 0 -74 -18 -150 -40z"/>
<path d="M5550 9234 l0 -97 118 7 c223 13 311 56 204 99 -42 17 -293 87 -310
87 -8 0 -12 -30 -12 -96z"/>
<path d="M2173 7158 c-28 -31 -36 -61 -21 -80 7 -9 128 -61 268 -116 140 -55
365 -145 500 -200 345 -140 470 -186 479 -176 5 5 16 31 24 57 l16 49 -92 43
c-152 71 -1100 445 -1128 445 -14 0 -35 -10 -46 -22z m67 -20 c0 -16 -31 -48
-47 -48 -18 0 -16 20 4 42 18 20 43 24 43 6z"/>
<path d="M7520 6976 c-278 -111 -543 -220 -589 -241 l-83 -39 7 -44 c9 -58 14
-72 29 -72 27 0 1227 480 1238 495 27 37 -16 105 -65 104 -18 0 -259 -91 -537
-203z m562 157 c10 -9 18 -22 18 -30 0 -18 -25 -17 -44 3 -35 34 -10 60 26 27z"/>
<path d="M3625 6681 c-55 -25 -110 -84 -147 -159 -26 -52 -33 -79 -36 -148
l-5 -85 59 22 c33 12 119 48 192 80 73 33 137 59 143 59 18 0 0 222 -19 238
-24 19 -140 15 -187 -7z"/>
<path d="M6467 6687 c-14 -9 -19 -32 -22 -97 -3 -46 -7 -92 -10 -101 -3 -9 1
-21 8 -27 18 -15 225 -107 321 -143 l78 -29 -4 77 c-6 99 -36 177 -93 241 -59
65 -116 92 -198 92 -35 0 -71 -6 -80 -13z"/>
<path d="M1855 6655 c-27 -27 -34 -85 -12 -102 24 -20 983 -253 1039 -253 19
0 31 12 59 65 22 42 31 67 24 73 -12 12 -174 50 -615 147 -190 41 -364 79
-387 85 -63 15 -81 12 -108 -15z m55 -28 c0 -30 -24 -62 -38 -53 -16 10 -15
27 4 54 20 28 34 28 34 -1z"/>
<path d="M8120 6629 c-118 -27 -289 -65 -380 -84 -301 -66 -421 -97 -427 -111
-2 -7 10 -40 28 -73 24 -47 37 -61 54 -61 51 0 1019 235 1043 253 19 15 14 71
-9 101 -28 35 -49 34 -309 -25z m279 8 c15 -19 18 -59 4 -64 -14 -5 -47 53
-38 67 8 14 21 12 34 -3z"/>
<path d="M7032 6509 c-18 -6 -51 -28 -73 -50 -37 -37 -40 -43 -35 -82 3 -23 8
-67 11 -97 l6 -55 147 -62 c81 -35 156 -66 167 -70 11 -4 25 -14 32 -22 10
-13 14 -14 25 -3 9 9 13 44 13 115 0 91 -3 109 -29 164 -34 75 -106 147 -162
162 -45 13 -57 13 -102 0z"/>
<path d="M3105 6491 c-57 -34 -114 -110 -135 -179 -19 -62 -26 -172 -14 -219
6 -21 7 -21 47 -7 75 26 312 127 325 139 8 7 15 48 19 104 6 91 6 92 -23 122
-16 17 -41 37 -56 45 -39 20 -127 18 -163 -5z"/>
</g>
</svg>
