<?xml version="1.0" standalone="no"?>
<!DOCTYPE svg PUBLIC "-//W3C//DTD SVG 20010904//EN"
 "http://www.w3.org/TR/2001/REC-SVG-20010904/DTD/svg10.dtd">
<svg version="1.0" xmlns="http://www.w3.org/2000/svg"
 width="1280.000000pt" height="894.000000pt" viewBox="0 0 1280.000000 894.000000"
 preserveAspectRatio="xMidYMid meet">

<g transform="translate(0.000000,894.000000) scale(0.100000,-0.100000)"
fill="#000000" stroke="none">
<path d="M4262 8459 c-29 -5 -75 -20 -102 -34 -57 -29 -183 -148 -228 -216
-41 -62 -72 -175 -72 -266 0 -178 121 -343 286 -392 100 -29 149 -27 234 12
25 12 101 58 110 67 3 3 12 10 21 15 26 16 93 63 110 77 22 19 72 96 97 151
28 59 38 172 23 252 -42 229 -251 374 -479 334z"/>
<path d="M8900 7950 c-24 -9 -49 -26 -55 -36 -5 -11 -13 -21 -16 -24 -4 -3
-12 -51 -19 -107 -7 -57 -17 -103 -22 -103 -4 0 -8 -17 -9 -37 0 -43 -24 -176
-76 -418 -8 -38 -23 -119 -34 -180 -27 -159 -36 -204 -49 -255 -6 -25 -15 -67
-20 -95 -5 -27 -16 -79 -24 -115 -8 -36 -22 -101 -31 -145 -8 -44 -25 -120
-36 -170 -43 -188 -51 -222 -69 -310 -21 -102 -47 -212 -85 -365 -15 -58 -33
-134 -40 -170 -15 -73 -62 -255 -74 -285 -8 -21 -30 -102 -62 -235 -54 -225
-53 -223 -114 -240 -25 -7 -48 -17 -51 -21 -3 -5 -12 -9 -21 -9 -13 0 -67 -22
-210 -86 -17 -8 -37 -14 -45 -14 -8 0 -18 -4 -24 -9 -5 -4 -81 -36 -169 -71
-88 -34 -169 -67 -180 -74 -11 -6 -76 -34 -145 -60 -69 -27 -142 -57 -163 -67
-22 -11 -43 -19 -48 -19 -6 0 -29 -9 -51 -20 -23 -11 -47 -20 -53 -20 -5 0
-37 -13 -70 -29 -97 -47 -153 -71 -164 -71 -6 0 -28 -9 -48 -20 -21 -11 -43
-20 -50 -20 -7 0 -28 -9 -48 -20 -20 -11 -40 -20 -46 -20 -5 0 -29 -9 -51 -20
-23 -11 -46 -20 -52 -20 -5 0 -37 -13 -70 -29 -72 -34 -129 -59 -211 -92 -33
-13 -61 -27 -63 -31 -2 -5 -10 -8 -18 -8 -8 0 -22 -4 -32 -9 -58 -29 -130 -61
-137 -61 -4 0 -67 -29 -141 -65 -74 -36 -141 -65 -149 -65 -8 0 -15 -4 -15 -9
0 -5 -12 -12 -27 -16 -15 -3 -50 -17 -78 -30 -27 -13 -69 -30 -92 -37 -24 -7
-43 -16 -43 -20 0 -3 -18 -9 -40 -13 -22 -4 -40 -11 -40 -16 0 -5 -7 -9 -15
-9 -8 0 -15 -4 -15 -10 0 -5 -7 -10 -16 -10 -8 0 -35 -9 -60 -20 -24 -11 -58
-23 -74 -27 -17 -3 -30 -9 -30 -13 0 -4 -20 -13 -45 -20 -25 -7 -48 -17 -51
-21 -3 -5 -14 -9 -24 -9 -10 0 -20 -4 -22 -8 -1 -5 -14 -12 -28 -15 -24 -6
-27 -3 -37 36 -11 42 -34 170 -58 327 -7 47 -20 114 -28 150 -9 36 -19 92 -22
125 -3 33 -13 96 -20 140 -8 44 -19 118 -24 165 -6 47 -15 110 -20 140 -6 30
-15 98 -21 150 -5 52 -21 181 -34 285 -14 105 -32 251 -41 325 -18 161 -33
286 -46 395 -6 44 -17 152 -25 240 -8 88 -18 192 -23 230 -5 39 -14 135 -20
215 -6 80 -15 183 -21 230 -6 47 -15 144 -20 215 -25 333 -36 385 -78 359 -27
-17 -33 -144 -38 -814 -5 -593 6 -1187 25 -1385 6 -55 15 -176 21 -270 6 -93
17 -222 25 -285 8 -63 19 -176 25 -250 6 -74 17 -169 25 -210 8 -41 22 -138
31 -215 18 -162 39 -309 53 -380 5 -27 16 -97 25 -155 9 -58 20 -118 25 -135
5 -16 13 -55 16 -85 4 -30 15 -80 25 -110 10 -30 21 -73 25 -95 14 -89 87
-379 114 -455 11 -30 20 -63 21 -73 0 -9 4 -25 9 -35 5 -9 35 -98 67 -197 32
-99 65 -193 74 -210 8 -16 26 -57 39 -90 51 -128 148 -331 194 -406 36 -60
119 -184 126 -189 3 -3 19 -23 35 -45 17 -22 39 -49 50 -61 12 -11 48 -49 81
-83 105 -111 235 -193 380 -238 6 -2 44 -10 85 -18 150 -29 294 -15 430 42 86
36 244 127 284 164 8 8 32 28 52 44 47 37 180 170 217 216 15 19 42 52 60 73
33 40 71 92 135 186 20 30 39 57 42 60 14 14 70 100 70 107 0 5 8 18 18 29 9
11 23 31 31 45 8 13 27 47 43 74 16 28 32 58 35 68 3 9 9 17 14 17 5 0 9 5 9
11 0 7 19 48 42 93 89 175 148 294 148 301 0 4 8 19 18 33 10 15 26 50 36 77
10 28 29 73 41 100 70 151 105 227 105 232 0 2 11 29 25 59 14 30 25 57 25 59
0 2 11 28 24 57 13 29 31 78 42 108 10 30 22 59 26 65 4 5 8 17 8 27 0 10 4
18 8 18 4 0 13 17 19 37 14 49 40 120 57 158 8 17 17 41 21 55 3 14 10 35 16
48 24 59 28 69 32 92 6 27 51 153 66 185 15 31 128 376 136 415 4 19 11 40 15
45 5 6 13 30 20 55 6 25 19 68 29 95 32 87 82 253 86 280 1 13 21 83 45 160
10 33 27 92 38 130 11 39 28 97 38 130 10 33 21 78 25 100 5 22 22 90 39 150
54 191 99 362 105 400 4 25 61 255 77 310 13 49 33 132 58 245 10 47 28 126
39 175 11 50 30 131 41 180 12 50 29 133 40 185 10 52 33 158 50 235 16 77 39
187 50 245 10 58 28 150 40 205 12 55 27 135 35 178 7 43 18 84 24 91 6 6 16
46 22 87 7 40 15 76 19 79 13 9 27 154 18 185 -12 44 -51 83 -104 105 -55 24
-84 24 -144 0z m-880 -3638 c0 -10 -4 -22 -8 -27 -5 -6 -14 -30 -21 -55 -15
-50 -29 -95 -41 -125 -19 -50 -60 -192 -60 -206 0 -8 -4 -19 -10 -25 -5 -5
-14 -34 -20 -63 -5 -30 -16 -67 -24 -82 -8 -16 -18 -43 -21 -61 -4 -18 -11
-37 -15 -43 -5 -5 -13 -30 -19 -55 -11 -43 -23 -75 -42 -112 -5 -10 -9 -23 -9
-30 0 -7 -12 -36 -26 -64 -22 -43 -33 -54 -67 -65 -23 -7 -53 -20 -67 -29 -35
-23 -145 -70 -162 -70 -9 0 -27 -9 -41 -20 -14 -11 -30 -20 -35 -20 -11 0
-221 -81 -289 -111 -24 -10 -47 -19 -53 -19 -10 0 -57 -20 -156 -66 -28 -13
-55 -24 -59 -24 -5 0 -27 -8 -49 -19 -58 -26 -355 -141 -365 -141 -5 0 -26 -9
-48 -20 -56 -28 -152 -70 -162 -70 -4 0 -22 -7 -39 -16 -18 -8 -46 -19 -64
-24 l-33 -9 35 31 c92 81 108 96 155 133 28 22 62 51 77 65 15 14 43 39 64 55
20 17 42 35 48 40 14 14 273 222 317 255 18 14 53 43 77 65 69 62 100 88 128
110 14 11 31 25 37 30 7 6 37 30 67 55 30 25 69 57 85 72 17 16 33 28 36 28 3
0 19 12 35 28 17 15 51 45 78 67 93 78 141 120 166 145 14 14 63 57 110 95 47
39 94 79 106 90 12 11 43 38 69 60 26 22 66 57 89 78 213 199 226 208 226 169z
m-575 -230 c-17 -15 -43 -36 -59 -47 -15 -11 -40 -30 -54 -43 -15 -12 -31 -26
-37 -30 -5 -4 -22 -16 -36 -27 -15 -11 -37 -27 -49 -35 -12 -8 -32 -24 -45
-35 -12 -11 -35 -30 -51 -42 -53 -41 -142 -108 -170 -128 -15 -11 -55 -42 -87
-70 -33 -27 -74 -61 -91 -74 -17 -14 -63 -50 -101 -80 -39 -31 -86 -67 -104
-81 -18 -14 -45 -35 -60 -47 -14 -13 -30 -26 -36 -31 -5 -4 -35 -27 -65 -52
-30 -25 -60 -49 -68 -55 -7 -5 -23 -19 -34 -29 -12 -11 -49 -40 -82 -66 -34
-25 -107 -82 -164 -125 -57 -44 -111 -84 -120 -90 -9 -5 -24 -17 -32 -25 -8
-8 -42 -35 -75 -59 -33 -24 -67 -52 -75 -61 -8 -10 -53 -47 -100 -84 -104 -81
-135 -105 -165 -131 -13 -11 -36 -29 -51 -40 -15 -11 -32 -25 -38 -30 -6 -6
-38 -31 -71 -57 -33 -25 -78 -62 -99 -82 -22 -20 -45 -36 -51 -36 -5 0 -16 -9
-23 -20 -7 -11 -19 -20 -27 -20 -7 0 -20 -9 -28 -21 -19 -26 -28 -14 -44 61
-6 30 -19 82 -28 115 -40 144 -53 193 -65 245 -6 30 -18 73 -25 95 -7 22 -19
67 -25 100 -7 33 -16 74 -20 90 -5 17 -12 49 -15 72 -7 46 -12 41 70 73 22 9
145 45 185 55 23 6 35 10 93 35 12 5 38 14 57 19 51 15 132 42 155 52 11 4 70
27 130 49 61 22 118 45 127 50 10 6 22 10 28 10 6 0 33 11 62 25 28 14 57 25
62 25 6 0 23 6 38 14 14 8 43 19 65 26 21 7 43 16 48 20 6 4 37 17 70 30 33
13 64 27 70 32 5 4 15 8 23 8 8 0 56 20 108 45 51 25 95 45 99 45 3 0 32 12
63 26 100 45 120 54 128 54 4 0 30 11 58 24 28 13 74 34 101 46 112 49 125 55
125 63 0 4 6 7 13 7 6 0 35 11 62 25 28 13 58 25 68 25 9 0 17 4 17 9 0 5 12
12 28 16 15 3 50 17 77 30 114 53 164 75 172 75 4 0 48 21 98 45 49 25 92 45
95 45 3 0 -9 -13 -25 -28z m69 -1229 c-9 -26 -21 -52 -26 -57 -4 -6 -8 -18 -8
-27 0 -9 -9 -34 -19 -56 -11 -21 -32 -65 -46 -98 -88 -199 -106 -238 -118
-260 -53 -102 -67 -132 -67 -147 0 -10 -3 -18 -8 -18 -4 0 -18 -21 -30 -47
-26 -53 -39 -76 -94 -171 -21 -35 -38 -65 -38 -67 0 -1 -25 -42 -55 -91 -30
-49 -61 -100 -67 -114 -7 -14 -18 -31 -25 -38 -7 -7 -13 -17 -13 -22 0 -5 -6
-15 -12 -22 -23 -24 -58 -77 -58 -86 0 -5 -11 -22 -25 -38 -14 -16 -29 -34
-33 -39 -87 -121 -262 -313 -347 -381 -59 -48 -189 -134 -201 -134 -5 0 -21
-6 -36 -14 -45 -24 -139 -39 -201 -32 -65 7 -110 23 -206 76 -51 29 -176 152
-237 235 -16 22 -31 42 -34 45 -10 10 -80 131 -80 140 0 5 -3 10 -7 12 -11 5
-103 185 -103 202 0 8 -3 16 -8 18 -11 5 -72 135 -79 169 -3 16 -9 29 -14 29
-5 0 -9 8 -9 18 0 10 -4 22 -9 27 -5 6 -12 24 -16 42 -6 29 -3 34 37 60 24 16
59 35 78 43 19 7 53 21 76 31 22 11 45 19 51 19 6 0 13 4 15 8 2 5 46 23 98
40 137 45 214 73 225 82 6 4 21 11 35 15 14 4 48 18 75 30 28 12 106 44 175
70 136 51 135 51 230 93 36 16 88 37 115 47 28 10 55 22 60 25 6 4 28 13 50
20 22 7 45 16 50 19 6 4 44 20 85 35 93 35 99 37 185 77 38 17 110 47 160 66
49 18 99 38 110 43 11 5 49 21 85 35 36 14 73 30 82 35 10 6 22 10 28 10 6 0
45 16 88 36 120 55 143 64 151 58 2 -1 -5 -24 -15 -51z"/>
</g>
</svg>
