<?xml version="1.0" encoding="utf-8"?><svg version="1.1" id="Layer_1" xmlns="http://www.w3.org/2000/svg" xmlns:xlink="http://www.w3.org/1999/xlink" x="0px" y="0px" viewBox="0 0 122.88 100.06" style="enable-background:new 0 0 122.88 100.06" xml:space="preserve"><style type="text/css">.st0{fill-rule:evenodd;clip-rule:evenodd;}</style><g><path class="st0" d="M6.38,0h110.11c3.51,0,6.39,2.87,6.39,6.38v87.29c0,3.51-2.87,6.38-6.39,6.38H6.38 c-3.51,0-6.38-2.87-6.38-6.38V6.38C0,2.87,2.87,0,6.38,0L6.38,0z M25.15,68.64V31.43h19.16c3.55,0,6.27,0.3,8.14,0.92 c1.88,0.61,3.4,1.74,4.55,3.39c1.15,1.65,1.72,3.67,1.72,6.05c0,2.06-0.44,3.85-1.33,5.34c-0.87,1.51-2.09,2.72-3.64,3.66 c-0.98,0.59-2.33,1.08-4.04,1.47c1.37,0.46,2.36,0.91,2.99,1.37c0.42,0.3,1.03,0.96,1.84,1.96c0.8,1,1.33,1.77,1.6,2.31l5.59,10.75 H48.75l-6.14-11.35c-0.78-1.47-1.47-2.43-2.08-2.87c-0.83-0.57-1.78-0.86-2.82-0.86h-1.01v15.07H25.15L25.15,68.64z M36.69,46.55 h4.86c0.52,0,1.54-0.17,3.05-0.51c0.76-0.15,1.39-0.54,1.86-1.17c0.49-0.63,0.73-1.35,0.73-2.17c0-1.2-0.38-2.13-1.14-2.77 c-0.76-0.65-2.19-0.97-4.3-0.97h-5.06V46.55L36.69,46.55z M86.24,31.43h11.49v22.17c0,2.19-0.35,4.27-1.03,6.22 c-0.68,1.96-1.76,3.66-3.22,5.13c-1.46,1.46-3,2.49-4.6,3.08c-2.23,0.82-4.92,1.24-8.05,1.24c-1.81,0-3.79-0.13-5.92-0.38 c-2.14-0.25-3.93-0.75-5.37-1.51c-1.44-0.75-2.75-1.82-3.94-3.2c-1.2-1.39-2.01-2.82-2.45-4.29c-0.71-2.36-1.07-4.46-1.07-6.29 V31.43h11.49v22.69c0,2.03,0.56,3.61,1.68,4.75c1.13,1.14,2.68,1.72,4.68,1.72c1.97,0,3.52-0.56,4.64-1.69 c1.12-1.12,1.68-2.71,1.68-4.77V31.43L86.24,31.43z"/></g></svg>