<?xml version="1.0" encoding="UTF-8" standalone="no"?>
<svg
  xmlns:dc="http://purl.org/dc/elements/1.1/"
  xmlns:cc="http://creativecommons.org/ns#"
  xmlns:rdf="http://www.w3.org/1999/02/22-rdf-syntax-ns#"
  xmlns:svg="http://www.w3.org/2000/svg"
  xmlns="http://www.w3.org/2000/svg"
  viewBox="0 0 266.66666 266.66666"
  xml:space="preserve"
  id="svg2"
  version="1.1"><metadata
     id="metadata8"><rdf:RDF><cc:Work
         rdf:about=""><dc:format>image/svg+xml</dc:format><dc:type
  rdf:resource="http://purl.org/dc/dcmitype/StillImage"/></cc:Work></rdf:RDF></metadata>
  <defs
    id="defs6"><clipPath
       id="clipPath20"
       clipPathUnits="userSpaceOnUse"><path
         style="clip-rule:evenodd"
         id="path18"
         d="m 1000,0 c 552.29,0 1000,447.715 1000,1000 0,552.29 -447.71,1000 -1000,1000 C 447.715,2000 0,1552.29 0,1000 0,447.715 447.715,0 1000,0 Z M 558.785,1471.29 v -340.15 c 51.766,61.72 113.844,92.82 185.844,92.82 37.098,0 70.312,-7.06 100.078,-21.14 29.883,-13.96 52.234,-31.88 67.293,-53.61 15.176,-21.96 25.41,-46 30.941,-72.5 5.528,-26.36 8.274,-67.42 8.274,-123.062 V 589.922 H 790.273 v 327.566 c 0,65.024 -2.902,106.202 -9.019,123.692 -6.117,17.61 -16.863,31.45 -32.313,41.64 -15.492,10.47 -34.785,15.65 -58.078,15.65 -26.629,0 -50.59,-6.7 -71.371,-19.92 -21.219,-13.34 -36.512,-33.26 -46.16,-59.88 C 563.488,992 558.59,952.629 558.785,900.512 L 558.59,589.922 H 397.883 v 881.368 z m 633.605,0 v -340.15 c 51.81,61.72 113.84,92.82 185.84,92.82 36.95,0 70.36,-7.06 100.24,-21.14 29.73,-13.96 52.08,-31.88 67.1,-53.61 15.18,-21.96 25.45,-46 30.94,-72.5 5.53,-26.36 8.28,-67.42 8.28,-123.062 V 589.922 h -160.75 v 327.566 c 0,65.024 -3.02,106.202 -9.18,123.692 -6.11,17.61 -16.82,31.45 -32.35,41.64 -15.33,10.47 -34.78,15.65 -58.08,15.65 -26.63,0 -50.55,-6.7 -71.37,-19.92 -20.98,-13.34 -36.31,-33.26 -46.12,-59.88 -9.65,-26.67 -14.55,-66.041 -14.55,-118.158 v -310.59 h -160.74 v 881.368 z" /></clipPath>
    <clipPath
      id="clipPath26"
      clipPathUnits="userSpaceOnUse"><path
         id="path24"
         d="M 0,0 H 2000 V 2000 H 0 Z" /></clipPath></defs>
  <g
    transform="matrix(1.3333333,0,0,-1.3333333,0,266.66667)"
    id="g10"><g
       transform="scale(0.1)"
       id="g12"><g
         id="g14"><g
           clip-path="url(#clipPath20)"
           id="g16"><g
             clip-path="url(#clipPath26)"
             id="g22"><path
               id="path28"
               style="fill-opacity:1;fill-rule:nonzero;stroke:none"
               d="M 0,0 H 2100 V 2100 H 0 Z" /></g></g></g></g></g></svg>